<?xml version="1.0" encoding="UTF-8"?>
<svg xmlns="http://www.w3.org/2000/svg" xmlns:xlink="http://www.w3.org/1999/xlink" viewBox="0 0 48 48" width="48px" height="48px">
<g id="surface17907210">
<path style=" stroke:none;fill-rule:nonzero;fill:rgb(90.588236%,29.803923%,23.529412%);fill-opacity:1;" d="M 24 8 C 20.140625 8 17 10.242188 17 13 C 17 15.757812 20.140625 18 24 18 C 27.859375 18 31 15.757812 31 13 C 31 10.242188 27.859375 8 24 8 Z M 6.5 9 C 5.933594 9 5.414062 9.320312 5.160156 9.828125 C 4.902344 10.335938 4.960938 10.945312 5.300781 11.402344 C 5.425781 11.566406 8.25 15.242188 14.191406 17.058594 L 13.585938 19.472656 L 10.105469 26.433594 C 9.804688 27.03125 9.757812 27.710938 9.972656 28.34375 C 10.183594 28.976562 10.625 29.488281 11.226562 29.789062 L 13.613281 30.984375 L 11.816406 37.511719 C 11.5 38.582031 11.703125 39.707031 12.371094 40.597656 C 13.039062 41.488281 14.0625 42 15.175781 42 L 22.5 42 L 22.5 21.292969 C 19.515625 21.085938 17.601562 20.0625 16.6875 19.433594 L 17.160156 17.539062 C 16.132812 16.605469 15.421875 15.457031 15.140625 14.195312 C 13.191406 13.601562 11.609375 12.792969 10.4375 12 L 15.101562 12 C 15.304688 10.902344 15.832031 9.886719 16.613281 9.011719 C 16.574219 9.007812 16.539062 9 16.5 9 Z M 31.5 9 C 31.460938 9 31.425781 9.007812 31.386719 9.011719 C 32.167969 9.882812 32.691406 10.902344 32.898438 12 L 37.5625 12 C 36.390625 12.789062 34.808594 13.601562 32.859375 14.195312 C 32.605469 15.328125 32.003906 16.367188 31.140625 17.242188 L 31.730469 19.613281 C 29.375 20.542969 27.304688 21.023438 25.5 21.21875 L 25.5 42 L 32.777344 42 C 33.902344 42 34.929688 41.480469 35.597656 40.570312 C 36.261719 39.667969 36.453125 38.53125 36.136719 37.507812 L 34.363281 30.992188 L 36.777344 29.789062 C 37.375 29.488281 37.816406 28.976562 38.03125 28.34375 C 38.242188 27.710938 38.191406 27.03125 37.914062 26.476562 L 34.921875 20 L 34.15625 16.949219 C 39.855469 15.097656 42.578125 11.5625 42.699219 11.402344 C 43.042969 10.945312 43.097656 10.335938 42.84375 9.828125 C 42.585938 9.320312 42.066406 9 41.5 9 Z M 21.5 12 C 22.328125 12 23 12.671875 23 13.5 C 23 14.328125 22.328125 15 21.5 15 C 20.671875 15 20 14.328125 20 13.5 C 20 12.671875 20.671875 12 21.5 12 Z M 26.5 12 C 27.328125 12 28 12.671875 28 13.5 C 28 14.328125 27.328125 15 26.5 15 C 25.671875 15 25 14.328125 25 13.5 C 25 12.671875 25.671875 12 26.5 12 Z M 26.5 12 "/>
</g>
</svg>
